<svg width="24" height="24" viewBox="0 0 24 24" fill="none" xmlns="http://www.w3.org/2000/svg">
<path d="M12 5.44578C14.1205 5.44578 14.4096 5.44578 15.2771 5.44578C16.0482 5.44578 16.4337 5.63855 16.7229 5.73494C17.1084 5.92771 17.3976 6.0241 17.6867 6.31325C17.9759 6.60241 18.1687 6.89157 18.2651 7.27711C18.3614 7.56627 18.4578 7.95181 18.5542 8.72289C18.5542 9.59036 18.5542 9.78313 18.5542 12C18.5542 14.2169 18.5542 14.4096 18.5542 15.2771C18.5542 16.0482 18.3614 16.4337 18.2651 16.7229C18.0723 17.1084 17.9759 17.3976 17.6867 17.6867C17.3976 17.9759 17.1084 18.1687 16.7229 18.2651C16.4337 18.3614 16.0482 18.4578 15.2771 18.5542C14.4096 18.5542 14.2169 18.5542 12 18.5542C9.78313 18.5542 9.59036 18.5542 8.72289 18.5542C7.95181 18.5542 7.56627 18.3614 7.27711 18.2651C6.89157 18.0723 6.60241 17.9759 6.31325 17.6867C6.0241 17.3976 5.83133 17.1084 5.73494 16.7229C5.63855 16.4337 5.54217 16.0482 5.44578 15.2771C5.44578 14.4096 5.44578 14.2169 5.44578 12C5.44578 9.78313 5.44578 9.59036 5.44578 8.72289C5.44578 7.95181 5.63855 7.56627 5.73494 7.27711C5.92771 6.89157 6.0241 6.60241 6.31325 6.31325C6.60241 6.0241 6.89157 5.83133 7.27711 5.73494C7.56627 5.63855 7.95181 5.54217 8.72289 5.44578C9.59036 5.44578 9.87952 5.44578 12 5.44578ZM12 4C9.78313 4 9.59036 4 8.72289 4C7.85542 4 7.27711 4.19277 6.79518 4.38554C6.31325 4.57831 5.83133 4.86747 5.3494 5.3494C4.86747 5.83133 4.6747 6.21687 4.38554 6.79518C4.19277 7.27711 4.09639 7.85542 4 8.72289C4 9.59036 4 9.87952 4 12C4 14.2169 4 14.4096 4 15.2771C4 16.1446 4.19277 16.7229 4.38554 17.2048C4.57831 17.6867 4.86747 18.1687 5.3494 18.6506C5.83133 19.1325 6.21687 19.3253 6.79518 19.6145C7.27711 19.8072 7.85542 19.9036 8.72289 20C9.59036 20 9.87952 20 12 20C14.1205 20 14.4096 20 15.2771 20C16.1446 20 16.7229 19.8072 17.2048 19.6145C17.6867 19.4217 18.1687 19.1325 18.6506 18.6506C19.1325 18.1687 19.3253 17.7831 19.6145 17.2048C19.8072 16.7229 19.9036 16.1446 20 15.2771C20 14.4096 20 14.1205 20 12C20 9.87952 20 9.59036 20 8.72289C20 7.85542 19.8072 7.27711 19.6145 6.79518C19.4217 6.31325 19.1325 5.83133 18.6506 5.3494C18.1687 4.86747 17.7831 4.6747 17.2048 4.38554C16.7229 4.19277 16.1446 4.09639 15.2771 4C14.4096 4 14.2169 4 12 4Z" fill="white"/>
<path d="M12 7.85542C9.68675 7.85542 7.85542 9.68675 7.85542 12C7.85542 14.3133 9.68675 16.1446 12 16.1446C14.3133 16.1446 16.1446 14.3133 16.1446 12C16.1446 9.68675 14.3133 7.85542 12 7.85542ZM12 14.6988C10.5542 14.6988 9.30121 13.5422 9.30121 12C9.30121 10.5542 10.4578 9.30121 12 9.30121C13.4458 9.30121 14.6988 10.4578 14.6988 12C14.6988 13.4458 13.4458 14.6988 12 14.6988Z" fill="white"/>
<path d="M16.241 8.72289C16.7733 8.72289 17.2048 8.29136 17.2048 7.75904C17.2048 7.22671 16.7733 6.79518 16.241 6.79518C15.7086 6.79518 15.2771 7.22671 15.2771 7.75904C15.2771 8.29136 15.7086 8.72289 16.241 8.72289Z" fill="white"/>
</svg>
