<svg width="42" height="35" viewBox="0 0 42 35" fill="none" xmlns="http://www.w3.org/2000/svg">
<rect width="42" height="34" transform="translate(0 0.0292969)" fill="white"/>
<path d="M29.515 24.2177C29.8864 23.0785 31.6264 11.7247 31.8415 9.48747C31.9065 8.80989 31.6923 8.35964 31.2726 8.15865C30.7652 7.91465 30.0137 8.03665 29.1419 8.35086C27.9462 8.78181 12.6597 15.2706 11.7765 15.6462C10.939 16.0017 10.1471 16.3896 10.1471 16.9513C10.1471 17.3463 10.3815 17.5684 11.0277 17.7992C11.7001 18.0388 13.3937 18.5523 14.3936 18.8278C15.3567 19.0938 16.4532 18.863 17.0678 18.4812C17.7192 18.0765 25.2369 13.0474 25.7768 12.6068C26.3159 12.1662 26.746 12.7305 26.3053 13.172C26.1386 13.3387 25.2966 14.1587 24.2772 15.1516C22.6016 16.7835 20.4468 18.8821 20.0238 19.3132C19.1976 20.1549 19.7841 21.0273 20.3381 21.3767C20.971 21.7751 25.5231 24.8277 26.2087 25.3175C26.8944 25.8072 27.5897 26.0293 28.2262 26.0293C28.8627 26.0293 29.1981 25.1911 29.515 24.2177Z" fill="#FF3903"/>
</svg>
