<svg width="24" height="24" viewBox="0 0 24 24" fill="none" xmlns="http://www.w3.org/2000/svg">
<path fill-rule="evenodd" clip-rule="evenodd" d="M18.1147 7.86392C18.7923 7.49565 19.3129 6.91249 19.558 6.21757C18.9237 6.55865 18.2212 6.80624 17.4734 6.93969C16.8747 6.36131 16.0216 6 15.0774 6C13.2646 6 11.7948 7.33233 11.7948 8.97571C11.7948 9.20894 11.8238 9.43608 11.8798 9.65387C9.15168 9.52978 6.73288 8.34504 5.11392 6.54465C4.83136 6.98414 4.66944 7.49536 4.66944 8.04073C4.66944 9.07318 5.24896 9.984 6.12976 10.5176C5.59168 10.5022 5.08552 10.3683 4.64296 10.1454C4.64264 10.1578 4.64264 10.1702 4.64264 10.1829C4.64264 11.6246 5.77416 12.8273 7.27584 13.1008C7.0004 13.1688 6.7104 13.2052 6.41104 13.2052C6.19952 13.2052 5.99384 13.1865 5.79344 13.1517C6.21112 14.3339 7.42336 15.1944 8.85984 15.2183C7.7364 16.0165 6.32104 16.4922 4.78304 16.4922C4.51808 16.4922 4.2568 16.4781 4 16.4506C5.45272 17.2949 7.17816 17.7877 9.03192 17.7877C15.0698 17.7877 18.3716 13.2532 18.3716 9.32077C18.3716 9.19175 18.3683 9.06346 18.362 8.93582C19.0034 8.5162 19.5599 7.99214 20 7.39535C19.4114 7.63207 18.7786 7.79205 18.1147 7.86392Z" fill="white"/>
</svg>
